<?xml version="1.0" standalone="no"?>
<!DOCTYPE svg PUBLIC "-//W3C//DTD SVG 20010904//EN"
 "http://www.w3.org/TR/2001/REC-SVG-20010904/DTD/svg10.dtd">
<svg version="1.0" xmlns="http://www.w3.org/2000/svg"
 width="40.000000pt" height="40.000000pt" viewBox="0 0 200.000000 200.000000"
 preserveAspectRatio="xMidYMid meet">

<g transform="translate(0.000000,200.000000) scale(0.100000,-0.100000)"
fill="#000000" stroke="none">
<path d="M835 1880 c-44 -90 -53 -101 -85 -111 -19 -6 -61 -22 -92 -36 l-57
-25 -104 35 -105 35 -82 -83 -82 -82 32 -104 c29 -91 31 -108 20 -134 -7 -16
-22 -57 -35 -90 l-22 -60 -101 -53 -102 -53 0 -112 0 -112 103 -52 c100 -49
104 -53 116 -95 7 -23 23 -63 36 -87 l22 -44 -36 -109 -36 -108 83 -82 82 -83
108 36 109 36 44 -22 c24 -13 64 -29 87 -36 42 -12 46 -16 95 -116 l52 -103
113 0 113 0 50 105 c30 64 55 105 64 105 8 0 15 3 15 7 0 4 -39 101 -87 214
l-87 207 -67 0 c-82 0 -127 14 -196 59 -48 32 -108 107 -127 158 -20 54 -26
122 -15 179 29 163 157 275 323 282 l70 3 88 211 c70 169 85 214 75 224 -6 7
-32 54 -57 104 l-44 92 -116 0 -116 0 -49 -100z"/>
<path d="M1494 1741 l-111 -36 -81 -195 c-45 -107 -84 -203 -88 -213 -5 -13 4
-29 29 -55 121 -127 126 -318 12 -458 -19 -23 -35 -45 -35 -48 0 -4 41 -102
90 -219 l90 -213 102 -33 101 -33 80 81 81 80 -34 105 c-30 94 -32 108 -20
133 7 15 23 55 35 88 l22 60 101 53 102 53 0 114 0 115 -99 50 c-71 35 -101
56 -106 72 -4 13 -20 53 -37 90 l-30 67 36 108 36 108 -82 81 -83 81 -111 -36z"/>
</g>
</svg>
